<?xml version="1.0" encoding="UTF-8" standalone="no"?>
<!-- Created with Inkscape (http://www.inkscape.org/) -->

<svg
   xmlns:dc="http://purl.org/dc/elements/1.1/"
   xmlns:cc="http://creativecommons.org/ns#"
   xmlns:rdf="http://www.w3.org/1999/02/22-rdf-syntax-ns#"
   xmlns:svg="http://www.w3.org/2000/svg"
   xmlns="http://www.w3.org/2000/svg"
   xmlns:sodipodi="http://sodipodi.sourceforge.net/DTD/sodipodi-0.dtd"
   xmlns:inkscape="http://www.inkscape.org/namespaces/inkscape"
   id="svg4251"
   version="1.1"
   inkscape:version="0.91 r13725"
   xml:space="preserve"
   width="200.31474"
   height="77.216125"
   viewBox="0 0 200.31474 77.216125"
   sodipodi:docname="American Water.svg"><metadata
     id="metadata4257"><rdf:RDF><cc:Work
         rdf:about=""><dc:format>image/svg+xml</dc:format><dc:type
           rdf:resource="http://purl.org/dc/dcmitype/StillImage" /><dc:title></dc:title></cc:Work></rdf:RDF></metadata><defs
     id="defs4255"><clipPath
       clipPathUnits="userSpaceOnUse"
       id="clipPath4265"><path
         d="m 0,0 0.72,0 0,828 L 0,828 0,0 Z"
         id="path4267"
         inkscape:connector-curvature="0" /></clipPath><clipPath
       clipPathUnits="userSpaceOnUse"
       id="clipPath4335"><path
         d="m 431.748,751.627 160.252,0 0,61.773 -160.252,0 0,-61.773 z"
         id="path4337"
         inkscape:connector-curvature="0" /></clipPath><clipPath
       clipPathUnits="userSpaceOnUse"
       id="clipPath4399"><path
         d="m 205.113,0 210.225,0 0,152.69 -210.225,0 0,-152.69 z"
         id="path4401"
         inkscape:connector-curvature="0" /></clipPath><clipPath
       clipPathUnits="userSpaceOnUse"
       id="clipPath4411"><path
         d="m 414,0 198,0 0,152.69 -198,0 L 414,0 Z"
         id="path4413"
         inkscape:connector-curvature="0" /></clipPath><clipPath
       clipPathUnits="userSpaceOnUse"
       id="clipPath4423"><path
         d="m 0.514,0 207.148,0 0,152.693 -207.148,0 L 0.514,0 Z"
         id="path4425"
         inkscape:connector-curvature="0" /></clipPath></defs><sodipodi:namedview
     pagecolor="#ffffff"
     bordercolor="#666666"
     borderopacity="1"
     objecttolerance="10"
     gridtolerance="10"
     guidetolerance="10"
     inkscape:pageopacity="0"
     inkscape:pageshadow="2"
     inkscape:window-width="1913"
     inkscape:window-height="1043"
     id="namedview4253"
     showgrid="false"
     inkscape:zoom="0.91207729"
     inkscape:cx="374.73201"
     inkscape:cy="12.223837"
     inkscape:window-x="0"
     inkscape:window-y="0"
     inkscape:window-maximized="0"
     inkscape:current-layer="g4259"
     fit-margin-top="0"
     fit-margin-left="0"
     fit-margin-right="0"
     fit-margin-bottom="0"
     showborder="false" /><g
     id="g4259"
     inkscape:groupmode="layer"
     inkscape:label="AMER0048_CorpBrochure_Web_Version_B"
     transform="matrix(1.25,0,0,-1.25,-282.34263,556.10806)"><g
       id="g4331"
       transform="translate(-205.8741,-368.51345)"><g
         id="g4333"
         clip-path="url(#clipPath4335)"><g
           id="g4339"
           transform="translate(440.0212,757.9272)"><path
             d="m 0,0 c 0.091,0 0.091,0.055 0.074,0.127 l -1.736,4.934 c -0.092,0.272 -0.183,0.272 -0.274,0 L -3.545,0.127 C -3.58,0.037 -3.545,0 -3.489,0 L 0,0 Z m -1.9,7.305 c 0.219,0.603 0.293,0.713 0.402,0.713 0.109,0 0.183,-0.091 0.402,-0.659 0.273,-0.693 3.14,-8.236 4.253,-11.011 0.659,-1.625 1.188,-1.917 1.572,-2.026 0.275,-0.091 0.548,-0.112 0.731,-0.112 0.109,0 0.182,-0.016 0.182,-0.11 0,-0.108 -0.165,-0.144 -0.365,-0.144 -0.273,0 -1.607,0 -2.867,0.036 -0.348,0.017 -0.547,0.017 -0.547,0.129 0,0.073 0.055,0.11 0.126,0.125 0.111,0.038 0.219,0.203 0.111,0.495 l -1.699,4.493 c -0.036,0.072 -0.073,0.11 -0.163,0.11 l -3.929,0 c -0.09,0 -0.143,-0.057 -0.181,-0.147 l -1.096,-3.233 c -0.163,-0.457 -0.257,-0.894 -0.257,-1.223 0,-0.366 0.385,-0.531 0.696,-0.531 l 0.182,0 c 0.129,0 0.182,-0.035 0.182,-0.11 0,-0.108 -0.108,-0.144 -0.274,-0.144 -0.438,0 -1.224,0.053 -1.423,0.053 -0.201,0 -1.206,-0.053 -2.065,-0.053 -0.237,0 -0.346,0.036 -0.346,0.144 0,0.075 0.073,0.11 0.164,0.11 0.127,0 0.384,0.021 0.53,0.036 0.84,0.111 1.206,0.807 1.533,1.718 L -1.9,7.305 Z"
             style="fill:#c60c46;fill-opacity:1;fill-rule:nonzero;stroke:none"
             id="path4341"
             inkscape:connector-curvature="0" /></g><g
           id="g4343"
           transform="translate(459.4915,753.8913)"><path
             d="m 0,0 c 0.053,-0.547 0.163,-1.388 0.819,-1.607 0.458,-0.147 0.877,-0.147 1.043,-0.147 0.072,0 0.126,-0.036 0.126,-0.11 0,-0.091 -0.145,-0.144 -0.327,-0.144 -0.367,0 -2.156,0.036 -2.739,0.09 -0.384,0.038 -0.458,0.092 -0.458,0.164 0,0.055 0.036,0.111 0.11,0.13 0.092,0.017 0.111,0.256 0.073,0.547 l -0.767,7.854 -0.036,0 -3.872,-7.927 c -0.33,-0.676 -0.419,-0.822 -0.566,-0.822 -0.147,0 -0.237,0.146 -0.547,0.712 -0.42,0.768 -1.481,2.756 -1.882,3.597 -0.473,0.986 -1.771,3.598 -2.045,4.238 l -0.073,0 -0.621,-7.012 c -0.018,-0.239 -0.018,-0.53 -0.018,-0.787 0,-0.236 0.145,-0.383 0.382,-0.437 0.275,-0.072 0.511,-0.093 0.621,-0.093 0.055,0 0.129,-0.053 0.129,-0.11 0,-0.108 -0.109,-0.144 -0.294,-0.144 -0.601,0 -1.366,0.053 -1.496,0.053 -0.146,0 -0.914,-0.053 -1.352,-0.053 -0.162,0 -0.273,0.036 -0.273,0.144 0,0.057 0.074,0.11 0.163,0.11 0.129,0 0.238,0.021 0.477,0.055 0.53,0.092 0.546,0.658 0.62,1.242 l 1.168,10.137 c 0.02,0.165 0.092,0.271 0.184,0.271 0.108,0 0.237,-0.053 0.328,-0.236 l 4.856,-9.641 4.676,9.624 c 0.073,0.147 0.147,0.253 0.257,0.253 0.11,0 0.201,-0.125 0.238,-0.419 L 0,0 Z"
             style="fill:#c60c46;fill-opacity:1;fill-rule:nonzero;stroke:none"
             id="path4345"
             inkscape:connector-curvature="0" /></g><g
           id="g4347"
           transform="translate(463.5114,759.1333)"><path
             d="m 0,0 c 0,2.411 0,2.848 -0.037,3.342 -0.037,0.529 -0.127,0.785 -0.657,0.859 -0.129,0.017 -0.401,0.034 -0.549,0.034 -0.053,0 -0.128,0.073 -0.128,0.132 0,0.089 0.075,0.125 0.257,0.125 0.73,0 1.772,-0.036 1.864,-0.036 0.109,0 3.469,-0.018 3.835,0 C 4.894,4.473 5.187,4.529 5.313,4.547 5.387,4.562 5.459,4.62 5.533,4.62 5.589,4.62 5.606,4.547 5.606,4.473 5.606,4.367 5.516,4.181 5.477,3.744 5.459,3.598 5.424,2.903 5.387,2.721 5.368,2.646 5.313,2.56 5.242,2.56 5.15,2.56 5.112,2.629 5.112,2.759 5.112,2.867 5.095,3.124 5.022,3.304 4.912,3.561 4.748,3.669 3.873,3.779 3.597,3.817 1.733,3.834 1.552,3.834 1.48,3.834 1.461,3.779 1.461,3.669 l 0,-4.217 c 0,-0.109 0,-0.166 0.091,-0.166 0.2,0 2.321,0 2.684,0.037 0.384,0.038 0.62,0.054 0.786,0.22 0.11,0.109 0.183,0.2 0.237,0.2 0.054,0 0.091,-0.036 0.091,-0.128 0,-0.09 -0.091,-0.346 -0.127,-0.858 -0.036,-0.31 -0.073,-0.894 -0.073,-1.003 0,-0.129 -0.038,-0.293 -0.147,-0.293 -0.073,0 -0.109,0.055 -0.109,0.147 0,0.146 0,0.309 -0.072,0.509 -0.054,0.22 -0.202,0.402 -0.824,0.476 -0.437,0.054 -2.154,0.074 -2.43,0.074 -0.088,0 -0.107,-0.055 -0.107,-0.11 l 0,-1.297 c 0,-0.529 -0.019,-2.339 0,-2.648 0.037,-1.042 0.33,-1.242 1.917,-1.242 0.42,0 1.188,0 1.608,0.164 0.419,0.183 0.639,0.456 0.73,1.078 0.036,0.182 0.072,0.238 0.165,0.238 0.091,0 0.109,-0.128 0.109,-0.238 0,-0.109 -0.129,-1.168 -0.219,-1.497 -0.109,-0.401 -0.274,-0.401 -0.894,-0.401 -1.206,0 -2.137,0.036 -2.794,0.054 -0.678,0.035 -1.097,0.035 -1.333,0.035 -0.038,0 -0.35,0 -0.697,-0.017 -0.309,-0.018 -0.675,-0.036 -0.931,-0.036 -0.163,0 -0.255,0.036 -0.255,0.128 0,0.054 0.038,0.126 0.128,0.126 0.147,0 0.347,0.055 0.492,0.074 0.31,0.056 0.349,0.366 0.42,0.823 C 0,-5.46 0,-4.238 0,-2.74 L 0,0 Z"
             style="fill:#c60c46;fill-opacity:1;fill-rule:nonzero;stroke:none"
             id="path4349"
             inkscape:connector-curvature="0" /></g><g
           id="g4351"
           transform="translate(474.1932,757.8187)"><path
             d="m 0,0 c 0,-0.092 0.036,-0.147 0.109,-0.2 0.239,-0.129 1.06,-0.239 1.771,-0.239 0.383,0 0.822,0.019 1.206,0.273 0.548,0.367 0.967,1.188 0.967,2.376 0,1.934 -1.058,3.05 -2.774,3.05 C 0.803,5.26 0.293,5.206 0.128,5.169 0.054,5.132 0,5.076 0,4.984 L 0,0 Z m -1.389,1.315 c 0,2.411 0,2.848 -0.035,3.342 -0.036,0.529 -0.128,0.784 -0.656,0.858 -0.131,0.017 -0.404,0.035 -0.551,0.035 -0.054,0 -0.126,0.073 -0.126,0.132 0,0.089 0.072,0.125 0.253,0.125 0.732,0 1.809,-0.036 1.9,-0.036 0.167,0 1.519,0.036 2.009,0.036 1.023,0 2.156,-0.093 2.997,-0.675 0.401,-0.295 1.113,-1.042 1.113,-2.12 0,-1.15 -0.474,-2.263 -1.973,-3.543 1.315,-1.643 2.432,-3.048 3.363,-4.018 0.856,-0.875 1.386,-1.021 1.787,-1.077 0.311,-0.055 0.477,-0.055 0.567,-0.055 0.089,0 0.145,-0.072 0.145,-0.126 0,-0.093 -0.089,-0.128 -0.383,-0.128 l -1.004,0 c -0.913,0 -1.314,0.089 -1.715,0.309 -0.696,0.367 -1.28,1.116 -2.194,2.285 -0.674,0.838 -1.387,1.843 -1.734,2.263 -0.073,0.073 -0.111,0.092 -0.22,0.092 L 0.109,-0.95 C 0.036,-0.95 0,-0.986 0,-1.078 l 0,-0.365 c 0,-1.498 0,-2.703 0.073,-3.341 0.055,-0.458 0.144,-0.75 0.639,-0.823 0.219,-0.039 0.567,-0.074 0.713,-0.074 0.109,0 0.126,-0.072 0.126,-0.126 0,-0.076 -0.072,-0.128 -0.255,-0.128 -0.876,0 -1.9,0.052 -1.973,0.052 -0.018,0 -1.095,-0.052 -1.589,-0.052 -0.163,0 -0.255,0.035 -0.255,0.128 0,0.054 0.037,0.126 0.126,0.126 0.148,0 0.35,0.035 0.496,0.074 0.309,0.073 0.347,0.365 0.419,0.823 0.091,0.638 0.091,1.86 0.091,3.359 l 0,2.74 z"
             style="fill:#c60c46;fill-opacity:1;fill-rule:nonzero;stroke:none"
             id="path4353"
             inkscape:connector-curvature="0" /></g><g
           id="g4355"
           transform="translate(485.971,756.3935)"><path
             d="m 0,0 c 0,-1.498 0,-2.721 0.074,-3.359 0.055,-0.457 0.109,-0.75 0.584,-0.823 0.237,-0.038 0.585,-0.074 0.732,-0.074 0.09,0 0.127,-0.072 0.127,-0.126 0,-0.076 -0.074,-0.128 -0.258,-0.128 -0.894,0 -1.935,0.052 -2.007,0.052 -0.091,0 -1.096,-0.052 -1.588,-0.052 -0.164,0 -0.255,0.036 -0.255,0.128 0,0.054 0.035,0.126 0.125,0.126 0.148,0 0.349,0.036 0.495,0.074 0.311,0.073 0.366,0.366 0.42,0.823 0.072,0.638 0.09,1.861 0.09,3.359 l 0,2.74 c 0,2.411 0,2.848 -0.036,3.342 -0.036,0.529 -0.163,0.765 -0.512,0.839 -0.18,0.037 -0.383,0.054 -0.491,0.054 -0.075,0 -0.129,0.073 -0.129,0.132 0,0.089 0.073,0.125 0.256,0.125 0.529,0 1.534,-0.036 1.625,-0.036 0.072,0 1.113,0.036 1.607,0.036 0.183,0 0.255,-0.036 0.255,-0.125 0,-0.059 -0.072,-0.132 -0.127,-0.132 -0.111,0 -0.218,0 -0.399,-0.035 C 0.146,6.847 0.057,6.631 0.019,6.082 0,5.588 0,5.151 0,2.74 L 0,0 Z"
             style="fill:#c60c46;fill-opacity:1;fill-rule:nonzero;stroke:none"
             id="path4357"
             inkscape:connector-curvature="0" /></g><g
           id="g4359"
           transform="translate(490.6674,753.3439)"><path
             d="m 0,0 c -1.57,1.35 -1.953,3.123 -1.953,4.601 0,1.04 0.383,2.851 1.806,4.237 0.969,0.931 2.431,1.661 4.894,1.661 0.64,0 1.554,-0.054 2.338,-0.181 0.604,-0.11 1.114,-0.221 1.645,-0.239 0.163,0 0.201,-0.072 0.201,-0.163 C 8.931,9.787 8.893,9.607 8.857,9.04 8.84,8.529 8.84,7.669 8.821,7.452 8.803,7.214 8.73,7.122 8.64,7.122 c -0.11,0 -0.131,0.11 -0.131,0.33 0,0.602 -0.254,1.222 -0.673,1.551 C 7.269,9.479 6.1,9.863 4.675,9.863 2.612,9.863 1.624,9.312 1.058,8.783 -0.126,7.688 -0.383,6.3 -0.383,4.73 c 0,-2.978 2.357,-5.625 5.789,-5.625 1.205,0 2.01,0.09 2.648,0.73 C 8.4,0.182 8.62,0.84 8.675,1.134 8.712,1.297 8.73,1.35 8.84,1.35 8.913,1.35 8.986,1.242 8.986,1.134 8.986,1.023 8.766,-0.328 8.602,-0.859 8.509,-1.151 8.473,-1.206 8.199,-1.316 7.542,-1.572 6.339,-1.662 5.296,-1.662 2.886,-1.662 1.259,-1.095 0,0"
             style="fill:#c60c46;fill-opacity:1;fill-rule:nonzero;stroke:none"
             id="path4361"
             inkscape:connector-curvature="0" /></g><g
           id="g4363"
           transform="translate(507.188,756.8499)"><path
             d="m 0,0 c 0.074,0 0.074,0.038 0.057,0.111 l -1.59,4.253 c -0.09,0.238 -0.182,0.238 -0.272,0 L -3.304,0.111 C -3.322,0.038 -3.304,0 -3.249,0 L 0,0 Z m -1.79,6.465 c 0.202,0.511 0.277,0.604 0.385,0.604 0.166,0 0.222,-0.223 0.386,-0.568 0.292,-0.656 2.866,-7.067 3.853,-9.423 0.587,-1.389 1.025,-1.588 1.374,-1.698 0.238,-0.071 0.475,-0.092 0.64,-0.092 0.089,0 0.2,-0.036 0.2,-0.126 0,-0.093 -0.183,-0.128 -0.365,-0.128 -0.237,0 -1.429,0 -2.542,0.035 -0.311,0.017 -0.567,0.017 -0.567,0.109 0,0.074 0.037,0.074 0.111,0.11 0.09,0.035 0.251,0.164 0.145,0.422 L 0.385,-0.73 C 0.35,-0.658 0.33,-0.639 0.239,-0.639 l -3.708,0 c -0.072,0 -0.126,-0.036 -0.162,-0.127 L -4.547,-3.25 c -0.146,-0.384 -0.235,-0.767 -0.235,-1.04 0,-0.311 0.273,-0.422 0.548,-0.422 l 0.147,0 c 0.126,0 0.163,-0.053 0.163,-0.126 0,-0.093 -0.09,-0.128 -0.239,-0.128 -0.384,0 -1.258,0.052 -1.442,0.052 -0.166,0 -0.967,-0.052 -1.624,-0.052 -0.201,0 -0.312,0.035 -0.312,0.128 0,0.073 0.073,0.126 0.147,0.126 0.11,0 0.347,0.021 0.474,0.035 0.732,0.094 1.042,0.642 1.353,1.427 l 3.777,9.715 z"
             style="fill:#c60c46;fill-opacity:1;fill-rule:nonzero;stroke:none"
             id="path4365"
             inkscape:connector-curvature="0" /></g><g
           id="g4367"
           transform="translate(514.1594,753.9998)"><path
             d="m 0,0 c 0.036,-1.276 0.183,-1.66 0.622,-1.77 0.292,-0.071 0.655,-0.092 0.8,-0.092 0.074,0 0.129,-0.053 0.129,-0.126 0,-0.093 -0.109,-0.128 -0.291,-0.128 -0.914,0 -1.552,0.052 -1.698,0.052 -0.145,0 -0.819,-0.052 -1.55,-0.052 -0.164,0 -0.256,0.017 -0.256,0.128 0,0.073 0.055,0.126 0.129,0.126 0.127,0 0.419,0.021 0.657,0.092 0.402,0.11 0.454,0.53 0.454,1.935 l 0,8.893 c 0,0.622 0.091,0.785 0.221,0.785 0.181,0 0.456,-0.31 0.619,-0.474 C 0.091,9.113 2.43,6.629 4.912,4.074 6.5,2.429 8.218,0.586 8.711,0.075 L 8.546,7.854 C 8.527,8.857 8.435,9.207 7.942,9.297 7.651,9.351 7.286,9.369 7.157,9.369 c -0.109,0 -0.128,0.093 -0.128,0.146 0,0.092 0.128,0.11 0.31,0.11 0.731,0 1.498,-0.035 1.684,-0.035 0.178,0 0.707,0.035 1.366,0.035 0.165,0 0.292,-0.018 0.292,-0.11 0,-0.053 -0.07,-0.146 -0.182,-0.146 -0.074,0 -0.2,0 -0.383,-0.035 C 9.586,9.223 9.552,8.913 9.552,7.981 L 9.513,-1.113 c 0,-1.023 -0.016,-1.115 -0.126,-1.115 -0.166,0 -0.33,0.129 -1.225,0.952 C 8,-1.13 5.68,1.153 3.981,2.921 2.118,4.877 0.311,6.777 -0.182,7.325 L 0,0 Z"
             style="fill:#c60c46;fill-opacity:1;fill-rule:nonzero;stroke:none"
             id="path4369"
             inkscape:connector-curvature="0" /></g><g
           id="g4371"
           transform="translate(545.4147,754.4023)"><path
             d="m 0,0 0.073,0 c 0.492,1.681 2.171,6.976 2.811,9.315 0.183,0.676 0.201,0.93 0.201,1.168 0,0.33 -0.201,0.548 -1.041,0.548 -0.091,0 -0.165,0.057 -0.165,0.127 0,0.092 0.093,0.128 0.313,0.128 0.931,0 1.698,-0.054 1.862,-0.054 0.129,0 0.912,0.054 1.481,0.054 0.164,0 0.251,-0.036 0.251,-0.107 0,-0.091 -0.054,-0.148 -0.163,-0.148 -0.073,0 -0.418,-0.018 -0.621,-0.093 C 4.455,10.739 4.161,9.971 3.815,8.966 3.013,6.646 1.167,0.84 0.456,-1.205 c -0.475,-1.35 -0.566,-1.571 -0.769,-1.571 -0.181,0 -0.291,0.238 -0.545,0.951 l -3.58,10.154 -0.036,0 c -0.658,-1.754 -3.16,-8.436 -3.818,-10.136 -0.291,-0.768 -0.383,-0.969 -0.603,-0.969 -0.182,0 -0.273,0.201 -0.637,1.444 l -3.252,10.83 c -0.291,0.968 -0.53,1.241 -1.004,1.424 -0.238,0.091 -0.694,0.109 -0.821,0.109 -0.092,0 -0.167,0.017 -0.167,0.127 0,0.092 0.111,0.128 0.294,0.128 0.948,0 1.952,-0.054 2.154,-0.054 0.164,0 0.969,0.054 1.882,0.054 0.255,0 0.326,-0.054 0.326,-0.128 0,-0.11 -0.089,-0.127 -0.181,-0.127 -0.145,0 -0.492,0 -0.712,-0.109 -0.109,-0.056 -0.238,-0.201 -0.238,-0.439 0,-0.238 0.165,-0.878 0.349,-1.678 0.272,-1.172 2.173,-7.874 2.444,-8.84 l 0.037,0 3.873,10.409 c 0.274,0.748 0.346,0.841 0.456,0.841 0.129,0 0.237,-0.239 0.458,-0.858 L 0,0 Z"
             style="fill:#c60c46;fill-opacity:1;fill-rule:nonzero;stroke:none"
             id="path4373"
             inkscape:connector-curvature="0" /></g><g
           id="g4375"
           transform="translate(556.2153,756.8499)"><path
             d="m 0,0 c 0.074,0 0.074,0.038 0.056,0.111 l -1.59,4.253 c -0.092,0.238 -0.183,0.238 -0.275,0 L -3.306,0.111 C -3.321,0.038 -3.306,0 -3.251,0 L 0,0 Z m -1.79,6.465 c 0.2,0.511 0.275,0.604 0.384,0.604 0.165,0 0.219,-0.223 0.384,-0.568 0.291,-0.656 2.869,-7.067 3.852,-9.423 0.585,-1.389 1.022,-1.588 1.371,-1.698 0.238,-0.071 0.475,-0.092 0.638,-0.092 0.094,0 0.202,-0.036 0.202,-0.126 0,-0.093 -0.183,-0.128 -0.365,-0.128 -0.237,0 -1.424,0 -2.538,0.035 -0.312,0.017 -0.567,0.017 -0.567,0.109 0,0.074 0.038,0.074 0.108,0.11 0.092,0.035 0.257,0.164 0.147,0.422 l -1.442,3.56 c -0.037,0.072 -0.055,0.091 -0.147,0.091 l -3.706,0 c -0.072,0 -0.128,-0.036 -0.164,-0.127 L -4.548,-3.25 c -0.146,-0.384 -0.237,-0.767 -0.237,-1.04 0,-0.311 0.275,-0.422 0.548,-0.422 l 0.146,0 c 0.127,0 0.165,-0.053 0.165,-0.126 0,-0.093 -0.091,-0.128 -0.238,-0.128 -0.384,0 -1.261,0.052 -1.441,0.052 -0.163,0 -0.969,-0.052 -1.626,-0.052 -0.199,0 -0.31,0.035 -0.31,0.128 0,0.073 0.071,0.126 0.144,0.126 0.11,0 0.349,0.021 0.478,0.035 0.729,0.094 1.04,0.642 1.351,1.427 l 3.778,9.715 z"
             style="fill:#c60c46;fill-opacity:1;fill-rule:nonzero;stroke:none"
             id="path4377"
             inkscape:connector-curvature="0" /></g><g
           id="g4379"
           transform="translate(565.4984,756.3935)"><path
             d="m 0,0 c 0,-1.498 0,-2.721 0.073,-3.359 0.053,-0.457 0.127,-0.75 0.619,-0.823 0.22,-0.038 0.585,-0.074 0.732,-0.074 0.107,0 0.126,-0.072 0.126,-0.126 0,-0.076 -0.071,-0.128 -0.254,-0.128 -0.877,0 -1.899,0.052 -1.988,0.052 -0.074,0 -1.19,-0.052 -1.666,-0.052 -0.181,0 -0.254,0.036 -0.254,0.128 0,0.054 0.035,0.11 0.127,0.11 0.147,0 0.33,0.037 0.476,0.071 0.329,0.074 0.42,0.385 0.474,0.842 0.072,0.638 0.072,1.861 0.072,3.359 l 0,6.519 -2.318,-0.035 C -4.785,6.463 -5.168,6.354 -5.408,5.99 -5.588,5.716 -5.607,5.607 -5.662,5.498 -5.698,5.369 -5.753,5.351 -5.827,5.351 c -0.036,0 -0.109,0.035 -0.109,0.128 0,0.163 0.329,1.551 0.348,1.68 0.035,0.091 0.106,0.29 0.165,0.29 0.108,0 0.272,-0.125 0.71,-0.18 0.457,-0.056 1.078,-0.073 1.261,-0.073 l 6.063,0 c 0.53,0 0.895,0.036 1.15,0.073 C 3.999,7.302 4.147,7.343 4.219,7.343 4.29,7.343 4.29,7.25 4.29,7.159 4.29,6.685 4.238,5.57 4.238,5.386 4.238,5.261 4.163,5.185 4.09,5.185 4.017,5.185 3.981,5.242 3.962,5.46 L 3.944,5.625 C 3.889,6.099 3.542,6.446 2.009,6.484 L 0,6.519 0,0 Z"
             style="fill:#c60c46;fill-opacity:1;fill-rule:nonzero;stroke:none"
             id="path4381"
             inkscape:connector-curvature="0" /></g><g
           id="g4383"
           transform="translate(572.2145,759.1333)"><path
             d="m 0,0 c 0,2.411 0,2.848 -0.039,3.342 -0.035,0.529 -0.127,0.785 -0.656,0.859 -0.128,0.017 -0.402,0.034 -0.549,0.034 -0.055,0 -0.128,0.073 -0.128,0.132 0,0.089 0.073,0.125 0.255,0.125 0.733,0 1.771,-0.036 1.864,-0.036 0.11,0 3.472,-0.018 3.836,0 0.31,0.017 0.601,0.073 0.728,0.091 C 5.385,4.562 5.46,4.62 5.533,4.62 5.588,4.62 5.602,4.547 5.602,4.473 5.602,4.367 5.515,4.181 5.478,3.744 5.46,3.598 5.422,2.903 5.385,2.721 5.368,2.646 5.311,2.56 5.238,2.56 5.148,2.56 5.111,2.629 5.111,2.759 5.111,2.867 5.092,3.124 5.021,3.304 4.91,3.561 4.747,3.669 3.871,3.779 3.597,3.817 1.735,3.834 1.549,3.834 1.478,3.834 1.46,3.779 1.46,3.669 l 0,-4.217 c 0,-0.109 0,-0.166 0.089,-0.166 0.202,0 2.322,0 2.688,0.037 0.384,0.038 0.619,0.054 0.784,0.22 0.11,0.109 0.182,0.2 0.237,0.2 0.053,0 0.092,-0.036 0.092,-0.128 0,-0.09 -0.092,-0.346 -0.127,-0.858 -0.039,-0.31 -0.075,-0.894 -0.075,-1.003 0,-0.129 -0.037,-0.293 -0.144,-0.293 -0.075,0 -0.111,0.055 -0.111,0.147 0,0.146 0,0.309 -0.074,0.509 -0.053,0.22 -0.198,0.402 -0.82,0.476 -0.439,0.054 -2.155,0.074 -2.431,0.074 -0.09,0 -0.108,-0.055 -0.108,-0.11 l 0,-1.297 c 0,-0.529 -0.019,-2.339 0,-2.648 0.036,-1.042 0.33,-1.242 1.916,-1.242 0.421,0 1.188,0 1.609,0.164 0.418,0.183 0.639,0.456 0.728,1.078 0.04,0.182 0.076,0.238 0.166,0.238 0.091,0 0.11,-0.128 0.11,-0.238 0,-0.109 -0.13,-1.168 -0.218,-1.497 -0.11,-0.401 -0.276,-0.401 -0.896,-0.401 -1.207,0 -2.138,0.036 -2.796,0.054 -0.674,0.035 -1.094,0.035 -1.332,0.035 -0.034,0 -0.346,0 -0.695,-0.017 -0.309,-0.018 -0.673,-0.036 -0.932,-0.036 -0.162,0 -0.254,0.036 -0.254,0.128 0,0.054 0.037,0.126 0.128,0.126 0.149,0 0.348,0.055 0.493,0.074 0.31,0.056 0.347,0.366 0.421,0.823 C 0,-5.46 0,-4.238 0,-2.74 L 0,0 Z"
             style="fill:#c60c46;fill-opacity:1;fill-rule:nonzero;stroke:none"
             id="path4385"
             inkscape:connector-curvature="0" /></g><g
           id="g4387"
           transform="translate(582.5941,757.8187)"><path
             d="m 0,0 c 0,-0.092 0.039,-0.147 0.11,-0.2 0.239,-0.129 1.059,-0.239 1.77,-0.239 0.385,0 0.824,0.019 1.207,0.273 C 3.636,0.201 4.055,1.022 4.055,2.21 4.055,4.144 2.994,5.26 1.28,5.26 0.804,5.26 0.295,5.206 0.128,5.169 0.055,5.132 0,5.076 0,4.984 L 0,0 Z m -1.388,1.315 c 0,2.411 0,2.848 -0.036,3.342 -0.036,0.529 -0.128,0.784 -0.658,0.858 -0.126,0.017 -0.402,0.035 -0.545,0.035 -0.057,0 -0.13,0.073 -0.13,0.132 0,0.089 0.073,0.125 0.253,0.125 0.732,0 1.809,-0.036 1.901,-0.036 0.166,0 1.516,0.036 2.01,0.036 1.024,0 2.154,-0.093 2.996,-0.675 0.399,-0.295 1.114,-1.042 1.114,-2.12 0,-1.15 -0.477,-2.263 -1.973,-3.543 1.314,-1.643 2.428,-3.048 3.359,-4.018 0.86,-0.875 1.39,-1.021 1.794,-1.077 0.31,-0.055 0.471,-0.055 0.562,-0.055 0.091,0 0.147,-0.072 0.147,-0.126 0,-0.093 -0.092,-0.128 -0.383,-0.128 l -1.004,0 c -0.915,0 -1.317,0.089 -1.718,0.309 -0.693,0.367 -1.279,1.116 -2.192,2.285 -0.676,0.838 -1.388,1.843 -1.735,2.263 -0.071,0.073 -0.109,0.092 -0.217,0.092 L 0.11,-0.95 C 0.039,-0.95 0,-0.986 0,-1.078 l 0,-0.365 c 0,-1.498 0,-2.703 0.074,-3.341 0.054,-0.458 0.144,-0.75 0.639,-0.823 0.218,-0.039 0.567,-0.074 0.713,-0.074 0.108,0 0.125,-0.072 0.125,-0.126 0,-0.076 -0.069,-0.128 -0.253,-0.128 -0.878,0 -1.901,0.052 -1.974,0.052 -0.019,0 -1.096,-0.052 -1.588,-0.052 -0.164,0 -0.256,0.035 -0.256,0.128 0,0.054 0.036,0.126 0.128,0.126 0.147,0 0.348,0.035 0.495,0.074 0.308,0.073 0.345,0.365 0.419,0.823 0.09,0.638 0.09,1.86 0.09,3.359 l 0,2.74 z"
             style="fill:#c60c46;fill-opacity:1;fill-rule:nonzero;stroke:none"
             id="path4389"
             inkscape:connector-curvature="0" /></g><g
           id="g4391"
           transform="translate(529.923,797.8379)"><path
             d="M 0,0 0,1.512 C -0.342,1.235 -1.241,0.584 -2.152,0.584 c -1.152,0 -2.306,1.056 -2.306,1.056 0,0 -0.013,-0.014 -0.038,-0.034 l 0,0.002 C -4.674,1.454 -5.486,0.787 -6.377,0.621 l -0.004,0 C -6.441,0.609 -6.505,0.6 -6.568,0.594 l -0.01,0 C -6.641,0.588 -6.702,0.584 -6.765,0.584 -7.917,0.585 -9.066,1.64 -9.066,1.64 l -10e-4,0 0,-10e-4 -0.003,10e-4 c 0,0 -1.152,-1.056 -2.304,-1.056 -0.531,0 -1.056,0.225 -1.473,0.466 -0.231,0.136 -0.463,0.337 -0.664,0.591 -0.196,0.247 -0.332,0.509 -0.411,0.758 l -0.004,0 -4.154,13.163 -4.677,-14.734 -15.457,0.106 12.566,-9.004 -4.875,-14.668 12.443,9.17 12.441,-9.17 -4.367,13.137 c -0.401,-0.201 -0.885,-0.377 -1.376,-0.377 -1.15,0 -2.304,0.967 -2.304,0.967 0,0 -1.151,-0.967 -2.304,-0.967 -1.151,0 -2.304,1.055 -2.304,1.055 0,0 -0.002,-0.088 -0.002,-0.088 l 0,1.72 0.002,0 c 0,0 1.153,-1.056 2.304,-1.056 1.153,0 2.304,1.056 2.304,1.056 0,0 1.154,-1.056 2.304,-1.056 1.007,0 2.012,0.804 2.252,1.009 l 0,1.825 c -0.245,-0.191 -1.245,-0.92 -2.248,-0.92 -1.153,0 -2.303,0.966 -2.303,0.966 0,0 -1.153,-0.966 -2.305,-0.966 -1.152,0 -2.304,1.054 -2.304,1.054 0,0 -0.002,-0.088 -0.003,-0.088 l 0,1.72 0.003,0 c 0,0 1.152,-1.055 2.304,-1.055 1.152,0 2.305,1.055 2.305,1.055 0,0 1.15,-1.055 2.303,-1.055 1.152,0 2.306,1.055 2.306,1.055 l 10e-4,-0.001 0,0.001 0.004,0 c 0,0 1.148,-1.054 2.299,-1.055 0.063,0 0.126,0.002 0.188,0.008 0.002,0 0.006,0 0.01,0.002 0.062,0.005 0.125,0.014 0.187,0.026 0,0 0,0.001 0.002,0.001 0.37,0.068 0.723,0.223 1.025,0.392 l 0.837,0.599 0,1.849 C -4.73,-2.086 -5.515,-2.65 -6.381,-2.81 c -0.002,0 -0.002,-10e-4 -0.002,-10e-4 -0.062,-0.01 -0.125,-0.019 -0.187,-0.025 -0.004,-0.001 -0.008,-0.001 -0.01,-0.001 -0.062,-0.006 -0.123,-0.009 -0.186,-0.009 l -0.002,0 c -1.151,0 -2.304,0.966 -2.304,0.966 0,0 -1.154,-0.966 -2.306,-0.966 -1.153,0 -2.303,0.966 -2.303,0.966 0,0 -1.153,-0.966 -2.305,-0.966 -1.152,0 -2.304,1.054 -2.304,1.054 0,0 -0.002,-0.088 -0.003,-0.088 l 0,1.72 0.003,0 0,-0.05 c 0,0 10e-4,0.025 10e-4,0.049 0.011,-0.01 1.155,-1.055 2.303,-1.055 0.517,0 1.029,0.215 1.443,0.45 0.508,0.264 0.865,0.556 0.865,0.556 0,0 0.323,-0.267 0.794,-0.521 0.423,-0.249 0.962,-0.485 1.506,-0.485 0.517,0 1.028,0.214 1.441,0.448 0.509,0.265 0.867,0.558 0.867,0.558 0,0 0.348,-0.286 0.845,-0.547 0.416,-0.238 0.933,-0.458 1.457,-0.459 0.063,0 0.126,0.004 0.188,0.009 0.002,0.001 0.006,0.001 0.01,0.001 0.062,0.007 0.125,0.016 0.187,0.027 l 0.002,0 c 0.46,0.085 0.895,0.303 1.236,0.516 0.411,0.231 0.687,0.453 0.687,0.453 0,0 0.33,-0.271 0.806,-0.527 0.422,-0.246 0.957,-0.479 1.497,-0.479 0.497,0 0.989,0.198 1.392,0.422 0.334,0.168 0.607,0.353 0.763,0.468 l 0,0.04 c 0.002,0.002 0.003,0.002 0.005,0.004 L 0.005,0 0,0 Z"
             style="fill:#005695;fill-opacity:1;fill-rule:nonzero;stroke:none"
             id="path4393"
             inkscape:connector-curvature="0" /></g></g></g></g></svg>